<mxfile host="app.diagrams.net" modified="2023-04-26T06:29:49.264Z" agent="Mozilla/5.0 (Windows NT 10.0; Win64; x64) AppleWebKit/537.36 (KHTML, like Gecko) Chrome/104.0.0.0 Safari/537.36" etag="aWM-J3n1sHYiDdrOU0GZ" version="21.2.1" type="github">
  <diagram id="R2lEEEUBdFMjLlhIrx00" name="Page-1">
    <mxGraphModel dx="842" dy="1491" grid="1" gridSize="10" guides="1" tooltips="1" connect="1" arrows="1" fold="1" page="1" pageScale="1" pageWidth="850" pageHeight="1100" math="0" shadow="0" extFonts="Permanent Marker^https://fonts.googleapis.com/css?family=Permanent+Marker">
      <root>
        <mxCell id="0" />
        <mxCell id="1" parent="0" />
        <mxCell id="x6mRr0KGEibL8xwdvmWb-18" style="edgeStyle=orthogonalEdgeStyle;rounded=0;orthogonalLoop=1;jettySize=auto;html=1;exitX=0.5;exitY=0;exitDx=0;exitDy=0;entryX=0.5;entryY=1;entryDx=0;entryDy=0;" edge="1" parent="1" source="x6mRr0KGEibL8xwdvmWb-1" target="x6mRr0KGEibL8xwdvmWb-17">
          <mxGeometry relative="1" as="geometry" />
        </mxCell>
        <mxCell id="x6mRr0KGEibL8xwdvmWb-30" value="n" style="edgeLabel;html=1;align=center;verticalAlign=middle;resizable=0;points=[];" vertex="1" connectable="0" parent="x6mRr0KGEibL8xwdvmWb-18">
          <mxGeometry x="-0.6398" relative="1" as="geometry">
            <mxPoint as="offset" />
          </mxGeometry>
        </mxCell>
        <mxCell id="x6mRr0KGEibL8xwdvmWb-1" value="文件夹（folder）" style="rounded=0;whiteSpace=wrap;html=1;" vertex="1" parent="1">
          <mxGeometry x="400" y="250" width="120" height="60" as="geometry" />
        </mxCell>
        <mxCell id="x6mRr0KGEibL8xwdvmWb-2" value="文件（file）" style="rounded=0;whiteSpace=wrap;html=1;" vertex="1" parent="1">
          <mxGeometry x="770" y="250" width="120" height="60" as="geometry" />
        </mxCell>
        <mxCell id="x6mRr0KGEibL8xwdvmWb-3" value="文件历史（file_history）" style="rounded=0;whiteSpace=wrap;html=1;" vertex="1" parent="1">
          <mxGeometry x="770" y="-60" width="120" height="60" as="geometry" />
        </mxCell>
        <mxCell id="x6mRr0KGEibL8xwdvmWb-4" value="文件分享（file_share）" style="rounded=0;whiteSpace=wrap;html=1;" vertex="1" parent="1">
          <mxGeometry x="1170" y="250" width="120" height="60" as="geometry" />
        </mxCell>
        <mxCell id="x6mRr0KGEibL8xwdvmWb-15" style="edgeStyle=orthogonalEdgeStyle;rounded=0;orthogonalLoop=1;jettySize=auto;html=1;exitX=0;exitY=0.5;exitDx=0;exitDy=0;entryX=1;entryY=0.5;entryDx=0;entryDy=0;" edge="1" parent="1" source="x6mRr0KGEibL8xwdvmWb-5" target="x6mRr0KGEibL8xwdvmWb-12">
          <mxGeometry relative="1" as="geometry" />
        </mxCell>
        <mxCell id="x6mRr0KGEibL8xwdvmWb-32" value="n" style="edgeLabel;html=1;align=center;verticalAlign=middle;resizable=0;points=[];" vertex="1" connectable="0" parent="x6mRr0KGEibL8xwdvmWb-15">
          <mxGeometry x="-0.6333" relative="1" as="geometry">
            <mxPoint as="offset" />
          </mxGeometry>
        </mxCell>
        <mxCell id="x6mRr0KGEibL8xwdvmWb-20" style="edgeStyle=orthogonalEdgeStyle;rounded=0;orthogonalLoop=1;jettySize=auto;html=1;exitX=0.5;exitY=0;exitDx=0;exitDy=0;" edge="1" parent="1" source="x6mRr0KGEibL8xwdvmWb-5">
          <mxGeometry relative="1" as="geometry">
            <mxPoint x="830" y="150" as="targetPoint" />
          </mxGeometry>
        </mxCell>
        <mxCell id="x6mRr0KGEibL8xwdvmWb-34" value="1" style="edgeLabel;html=1;align=center;verticalAlign=middle;resizable=0;points=[];" vertex="1" connectable="0" parent="x6mRr0KGEibL8xwdvmWb-20">
          <mxGeometry x="-0.6333" relative="1" as="geometry">
            <mxPoint as="offset" />
          </mxGeometry>
        </mxCell>
        <mxCell id="x6mRr0KGEibL8xwdvmWb-24" style="edgeStyle=orthogonalEdgeStyle;rounded=0;orthogonalLoop=1;jettySize=auto;html=1;exitX=1;exitY=0.5;exitDx=0;exitDy=0;entryX=0;entryY=0.5;entryDx=0;entryDy=0;" edge="1" parent="1" source="x6mRr0KGEibL8xwdvmWb-5" target="x6mRr0KGEibL8xwdvmWb-23">
          <mxGeometry relative="1" as="geometry" />
        </mxCell>
        <mxCell id="x6mRr0KGEibL8xwdvmWb-36" value="1" style="edgeLabel;html=1;align=center;verticalAlign=middle;resizable=0;points=[];" vertex="1" connectable="0" parent="x6mRr0KGEibL8xwdvmWb-24">
          <mxGeometry x="-0.8137" y="-1" relative="1" as="geometry">
            <mxPoint as="offset" />
          </mxGeometry>
        </mxCell>
        <mxCell id="x6mRr0KGEibL8xwdvmWb-5" value="文件（file）" style="rounded=0;whiteSpace=wrap;html=1;" vertex="1" parent="1">
          <mxGeometry x="770" y="250" width="120" height="60" as="geometry" />
        </mxCell>
        <mxCell id="x6mRr0KGEibL8xwdvmWb-26" style="edgeStyle=orthogonalEdgeStyle;rounded=0;orthogonalLoop=1;jettySize=auto;html=1;exitX=0;exitY=0.5;exitDx=0;exitDy=0;entryX=0.5;entryY=0;entryDx=0;entryDy=0;" edge="1" parent="1" source="x6mRr0KGEibL8xwdvmWb-6" target="x6mRr0KGEibL8xwdvmWb-27">
          <mxGeometry relative="1" as="geometry">
            <mxPoint x="70" y="50" as="targetPoint" />
          </mxGeometry>
        </mxCell>
        <mxCell id="x6mRr0KGEibL8xwdvmWb-6" value="目录（directory&lt;br&gt;）" style="rounded=0;whiteSpace=wrap;html=1;" vertex="1" parent="1">
          <mxGeometry x="400" y="-60" width="120" height="60" as="geometry" />
        </mxCell>
        <mxCell id="x6mRr0KGEibL8xwdvmWb-7" value="存储空间（storage&lt;br&gt;原folder）" style="rounded=0;whiteSpace=wrap;html=1;" vertex="1" parent="1">
          <mxGeometry x="10" y="250" width="120" height="60" as="geometry" />
        </mxCell>
        <mxCell id="x6mRr0KGEibL8xwdvmWb-16" style="edgeStyle=orthogonalEdgeStyle;rounded=0;orthogonalLoop=1;jettySize=auto;html=1;exitX=0;exitY=0.5;exitDx=0;exitDy=0;entryX=1;entryY=0.5;entryDx=0;entryDy=0;" edge="1" parent="1" source="x6mRr0KGEibL8xwdvmWb-12" target="x6mRr0KGEibL8xwdvmWb-1">
          <mxGeometry relative="1" as="geometry" />
        </mxCell>
        <mxCell id="x6mRr0KGEibL8xwdvmWb-33" value="1" style="edgeLabel;html=1;align=center;verticalAlign=middle;resizable=0;points=[];" vertex="1" connectable="0" parent="x6mRr0KGEibL8xwdvmWb-16">
          <mxGeometry x="0.5527" relative="1" as="geometry">
            <mxPoint as="offset" />
          </mxGeometry>
        </mxCell>
        <mxCell id="x6mRr0KGEibL8xwdvmWb-12" value="属于" style="rhombus;whiteSpace=wrap;html=1;" vertex="1" parent="1">
          <mxGeometry x="610" y="240" width="80" height="80" as="geometry" />
        </mxCell>
        <mxCell id="x6mRr0KGEibL8xwdvmWb-19" style="edgeStyle=orthogonalEdgeStyle;rounded=0;orthogonalLoop=1;jettySize=auto;html=1;exitX=0.5;exitY=0;exitDx=0;exitDy=0;entryX=0.5;entryY=1;entryDx=0;entryDy=0;" edge="1" parent="1" source="x6mRr0KGEibL8xwdvmWb-17" target="x6mRr0KGEibL8xwdvmWb-6">
          <mxGeometry relative="1" as="geometry" />
        </mxCell>
        <mxCell id="x6mRr0KGEibL8xwdvmWb-31" value="1" style="edgeLabel;html=1;align=center;verticalAlign=middle;resizable=0;points=[];" vertex="1" connectable="0" parent="x6mRr0KGEibL8xwdvmWb-19">
          <mxGeometry x="0.5909" relative="1" as="geometry">
            <mxPoint as="offset" />
          </mxGeometry>
        </mxCell>
        <mxCell id="x6mRr0KGEibL8xwdvmWb-17" value="属于" style="rhombus;whiteSpace=wrap;html=1;" vertex="1" parent="1">
          <mxGeometry x="420" y="90" width="80" height="80" as="geometry" />
        </mxCell>
        <mxCell id="x6mRr0KGEibL8xwdvmWb-22" style="edgeStyle=orthogonalEdgeStyle;rounded=0;orthogonalLoop=1;jettySize=auto;html=1;exitX=0.5;exitY=0;exitDx=0;exitDy=0;entryX=0.5;entryY=1;entryDx=0;entryDy=0;" edge="1" parent="1" source="x6mRr0KGEibL8xwdvmWb-21" target="x6mRr0KGEibL8xwdvmWb-3">
          <mxGeometry relative="1" as="geometry" />
        </mxCell>
        <mxCell id="x6mRr0KGEibL8xwdvmWb-35" value="n" style="edgeLabel;html=1;align=center;verticalAlign=middle;resizable=0;points=[];" vertex="1" connectable="0" parent="x6mRr0KGEibL8xwdvmWb-22">
          <mxGeometry x="0.6392" y="1" relative="1" as="geometry">
            <mxPoint as="offset" />
          </mxGeometry>
        </mxCell>
        <mxCell id="x6mRr0KGEibL8xwdvmWb-21" value="更新" style="rhombus;whiteSpace=wrap;html=1;" vertex="1" parent="1">
          <mxGeometry x="790" y="90" width="80" height="80" as="geometry" />
        </mxCell>
        <mxCell id="x6mRr0KGEibL8xwdvmWb-25" style="edgeStyle=orthogonalEdgeStyle;rounded=0;orthogonalLoop=1;jettySize=auto;html=1;exitX=1;exitY=0.5;exitDx=0;exitDy=0;entryX=0;entryY=0.5;entryDx=0;entryDy=0;" edge="1" parent="1" source="x6mRr0KGEibL8xwdvmWb-23" target="x6mRr0KGEibL8xwdvmWb-4">
          <mxGeometry relative="1" as="geometry" />
        </mxCell>
        <mxCell id="x6mRr0KGEibL8xwdvmWb-75" value="n" style="edgeLabel;html=1;align=center;verticalAlign=middle;resizable=0;points=[];" vertex="1" connectable="0" parent="x6mRr0KGEibL8xwdvmWb-25">
          <mxGeometry x="0.2467" relative="1" as="geometry">
            <mxPoint as="offset" />
          </mxGeometry>
        </mxCell>
        <mxCell id="x6mRr0KGEibL8xwdvmWb-23" value="分享" style="rhombus;whiteSpace=wrap;html=1;" vertex="1" parent="1">
          <mxGeometry x="990" y="240" width="80" height="80" as="geometry" />
        </mxCell>
        <mxCell id="x6mRr0KGEibL8xwdvmWb-28" style="edgeStyle=orthogonalEdgeStyle;rounded=0;orthogonalLoop=1;jettySize=auto;html=1;exitX=0.5;exitY=1;exitDx=0;exitDy=0;" edge="1" parent="1" source="x6mRr0KGEibL8xwdvmWb-27" target="x6mRr0KGEibL8xwdvmWb-7">
          <mxGeometry relative="1" as="geometry" />
        </mxCell>
        <mxCell id="x6mRr0KGEibL8xwdvmWb-27" value="属于" style="rhombus;whiteSpace=wrap;html=1;" vertex="1" parent="1">
          <mxGeometry x="30" y="90" width="80" height="80" as="geometry" />
        </mxCell>
        <mxCell id="x6mRr0KGEibL8xwdvmWb-37" value="id" style="ellipse;whiteSpace=wrap;html=1;" vertex="1" parent="1">
          <mxGeometry x="365" y="340" width="105" height="30" as="geometry" />
        </mxCell>
        <mxCell id="x6mRr0KGEibL8xwdvmWb-38" value="name" style="ellipse;whiteSpace=wrap;html=1;" vertex="1" parent="1">
          <mxGeometry x="365" y="440" width="105" height="30" as="geometry" />
        </mxCell>
        <mxCell id="x6mRr0KGEibL8xwdvmWb-39" value="directory_id" style="ellipse;whiteSpace=wrap;html=1;" vertex="1" parent="1">
          <mxGeometry x="365" y="490" width="105" height="30" as="geometry" />
        </mxCell>
        <mxCell id="x6mRr0KGEibL8xwdvmWb-40" value="is_root" style="ellipse;whiteSpace=wrap;html=1;" vertex="1" parent="1">
          <mxGeometry x="365" y="540" width="105" height="30" as="geometry" />
        </mxCell>
        <mxCell id="x6mRr0KGEibL8xwdvmWb-41" value="是不是在该目录下的根文件夹" style="shape=note;whiteSpace=wrap;html=1;backgroundOutline=1;darkOpacity=0.05;" vertex="1" parent="1">
          <mxGeometry x="490" y="535" width="130" height="40" as="geometry" />
        </mxCell>
        <mxCell id="x6mRr0KGEibL8xwdvmWb-42" value="parent_id" style="ellipse;whiteSpace=wrap;html=1;" vertex="1" parent="1">
          <mxGeometry x="365" y="390" width="105" height="30" as="geometry" />
        </mxCell>
        <mxCell id="x6mRr0KGEibL8xwdvmWb-45" value="" style="endArrow=none;dashed=1;html=1;dashPattern=1 3;strokeWidth=2;rounded=0;" edge="1" parent="1">
          <mxGeometry width="50" height="50" relative="1" as="geometry">
            <mxPoint x="420" y="620" as="sourcePoint" />
            <mxPoint x="420" y="580" as="targetPoint" />
          </mxGeometry>
        </mxCell>
        <mxCell id="x6mRr0KGEibL8xwdvmWb-46" value="id" style="ellipse;whiteSpace=wrap;html=1;" vertex="1" parent="1">
          <mxGeometry x="777.5" y="340" width="105" height="30" as="geometry" />
        </mxCell>
        <mxCell id="x6mRr0KGEibL8xwdvmWb-47" value="upload_name" style="ellipse;whiteSpace=wrap;html=1;" vertex="1" parent="1">
          <mxGeometry x="777.5" y="440" width="105" height="30" as="geometry" />
        </mxCell>
        <mxCell id="x6mRr0KGEibL8xwdvmWb-48" value="storage_object_id" style="ellipse;whiteSpace=wrap;html=1;" vertex="1" parent="1">
          <mxGeometry x="777.5" y="490" width="105" height="30" as="geometry" />
        </mxCell>
        <mxCell id="x6mRr0KGEibL8xwdvmWb-49" value="use_status" style="ellipse;whiteSpace=wrap;html=1;" vertex="1" parent="1">
          <mxGeometry x="777.5" y="540" width="105" height="30" as="geometry" />
        </mxCell>
        <mxCell id="x6mRr0KGEibL8xwdvmWb-50" value="folder_id" style="ellipse;whiteSpace=wrap;html=1;" vertex="1" parent="1">
          <mxGeometry x="777.5" y="390" width="105" height="30" as="geometry" />
        </mxCell>
        <mxCell id="x6mRr0KGEibL8xwdvmWb-51" value="" style="endArrow=none;dashed=1;html=1;dashPattern=1 3;strokeWidth=2;rounded=0;" edge="1" parent="1">
          <mxGeometry width="50" height="50" relative="1" as="geometry">
            <mxPoint x="832.5" y="620" as="sourcePoint" />
            <mxPoint x="832.5" y="580" as="targetPoint" />
          </mxGeometry>
        </mxCell>
        <mxCell id="x6mRr0KGEibL8xwdvmWb-52" value="id" style="ellipse;whiteSpace=wrap;html=1;" vertex="1" parent="1">
          <mxGeometry x="1177.5" y="330" width="105" height="30" as="geometry" />
        </mxCell>
        <mxCell id="x6mRr0KGEibL8xwdvmWb-53" value="expires_time" style="ellipse;whiteSpace=wrap;html=1;" vertex="1" parent="1">
          <mxGeometry x="1177.5" y="430" width="105" height="30" as="geometry" />
        </mxCell>
        <mxCell id="x6mRr0KGEibL8xwdvmWb-54" value="expires_type" style="ellipse;whiteSpace=wrap;html=1;" vertex="1" parent="1">
          <mxGeometry x="1177.5" y="480" width="105" height="30" as="geometry" />
        </mxCell>
        <mxCell id="x6mRr0KGEibL8xwdvmWb-56" value="object_id" style="ellipse;whiteSpace=wrap;html=1;" vertex="1" parent="1">
          <mxGeometry x="1177.5" y="380" width="105" height="30" as="geometry" />
        </mxCell>
        <mxCell id="x6mRr0KGEibL8xwdvmWb-57" value="" style="endArrow=none;dashed=1;html=1;dashPattern=1 3;strokeWidth=2;rounded=0;" edge="1" parent="1">
          <mxGeometry width="50" height="50" relative="1" as="geometry">
            <mxPoint x="1229.92" y="660" as="sourcePoint" />
            <mxPoint x="1229.92" y="620" as="targetPoint" />
          </mxGeometry>
        </mxCell>
        <mxCell id="x6mRr0KGEibL8xwdvmWb-58" value="id" style="ellipse;whiteSpace=wrap;html=1;" vertex="1" parent="1">
          <mxGeometry x="777.5" y="-360" width="105" height="30" as="geometry" />
        </mxCell>
        <mxCell id="x6mRr0KGEibL8xwdvmWb-59" value="upload_name" style="ellipse;whiteSpace=wrap;html=1;" vertex="1" parent="1">
          <mxGeometry x="777.5" y="-260" width="105" height="30" as="geometry" />
        </mxCell>
        <mxCell id="x6mRr0KGEibL8xwdvmWb-60" value="storage_object_id" style="ellipse;whiteSpace=wrap;html=1;" vertex="1" parent="1">
          <mxGeometry x="777.5" y="-210" width="105" height="30" as="geometry" />
        </mxCell>
        <mxCell id="x6mRr0KGEibL8xwdvmWb-61" value="file_size" style="ellipse;whiteSpace=wrap;html=1;" vertex="1" parent="1">
          <mxGeometry x="777.5" y="-160" width="105" height="30" as="geometry" />
        </mxCell>
        <mxCell id="x6mRr0KGEibL8xwdvmWb-62" value="file_id" style="ellipse;whiteSpace=wrap;html=1;" vertex="1" parent="1">
          <mxGeometry x="777.5" y="-310" width="105" height="30" as="geometry" />
        </mxCell>
        <mxCell id="x6mRr0KGEibL8xwdvmWb-63" value="" style="endArrow=none;dashed=1;html=1;dashPattern=1 3;strokeWidth=2;rounded=0;" edge="1" parent="1">
          <mxGeometry width="50" height="50" relative="1" as="geometry">
            <mxPoint x="832.5" y="-80" as="sourcePoint" />
            <mxPoint x="832.5" y="-120" as="targetPoint" />
          </mxGeometry>
        </mxCell>
        <mxCell id="x6mRr0KGEibL8xwdvmWb-65" value="可以是fileID也可以是folderID" style="shape=note;whiteSpace=wrap;html=1;backgroundOutline=1;darkOpacity=0.05;" vertex="1" parent="1">
          <mxGeometry x="1310" y="380" width="130" height="40" as="geometry" />
        </mxCell>
        <mxCell id="x6mRr0KGEibL8xwdvmWb-67" value="url" style="ellipse;whiteSpace=wrap;html=1;" vertex="1" parent="1">
          <mxGeometry x="1177.5" y="530" width="105" height="30" as="geometry" />
        </mxCell>
        <mxCell id="x6mRr0KGEibL8xwdvmWb-68" value="extract_code&amp;nbsp;" style="ellipse;whiteSpace=wrap;html=1;" vertex="1" parent="1">
          <mxGeometry x="1177.5" y="580" width="105" height="30" as="geometry" />
        </mxCell>
        <mxCell id="x6mRr0KGEibL8xwdvmWb-69" value="id" style="ellipse;whiteSpace=wrap;html=1;" vertex="1" parent="1">
          <mxGeometry x="407.5" y="-310" width="105" height="30" as="geometry" />
        </mxCell>
        <mxCell id="x6mRr0KGEibL8xwdvmWb-70" value="description" style="ellipse;whiteSpace=wrap;html=1;" vertex="1" parent="1">
          <mxGeometry x="407.5" y="-210" width="105" height="30" as="geometry" />
        </mxCell>
        <mxCell id="x6mRr0KGEibL8xwdvmWb-71" value="storage_id" style="ellipse;whiteSpace=wrap;html=1;" vertex="1" parent="1">
          <mxGeometry x="407.5" y="-160" width="105" height="30" as="geometry" />
        </mxCell>
        <mxCell id="x6mRr0KGEibL8xwdvmWb-73" value="name" style="ellipse;whiteSpace=wrap;html=1;" vertex="1" parent="1">
          <mxGeometry x="407.5" y="-260" width="105" height="30" as="geometry" />
        </mxCell>
        <mxCell id="x6mRr0KGEibL8xwdvmWb-74" value="" style="endArrow=none;dashed=1;html=1;dashPattern=1 3;strokeWidth=2;rounded=0;" edge="1" parent="1">
          <mxGeometry width="50" height="50" relative="1" as="geometry">
            <mxPoint x="462.5" y="-80" as="sourcePoint" />
            <mxPoint x="462.5" y="-120" as="targetPoint" />
          </mxGeometry>
        </mxCell>
      </root>
    </mxGraphModel>
  </diagram>
</mxfile>
